<?xml version="1.0" encoding="UTF-8" standalone="no"?>
<!-- Created with Inkscape (http://www.inkscape.org/) -->

<svg
   xmlns:dc="http://purl.org/dc/elements/1.1/"
   xmlns:cc="http://creativecommons.org/ns#"
   xmlns:rdf="http://www.w3.org/1999/02/22-rdf-syntax-ns#"
   xmlns:svg="http://www.w3.org/2000/svg"
   xmlns="http://www.w3.org/2000/svg"
   xmlns:sodipodi="http://sodipodi.sourceforge.net/DTD/sodipodi-0.dtd"
   xmlns:inkscape="http://www.inkscape.org/namespaces/inkscape"
   width="512"
   height="128"
   viewBox="0 0 135.46666 33.866665"
   version="1.1"
   id="svg8"
   inkscape:version="0.92.4 (5da689c313, 2019-01-14)"
   sodipodi:docname="logo.svg"
   inkscape:export-filename="E:\projects\fixtools\images\logo-small.png"
   inkscape:export-xdpi="48"
   inkscape:export-ydpi="48">
  <defs
     id="defs2" />
  <sodipodi:namedview
     id="base"
     pagecolor="#ffffff"
     bordercolor="#666666"
     borderopacity="1.0"
     inkscape:pageopacity="0.0"
     inkscape:pageshadow="2"
     inkscape:zoom="2"
     inkscape:cx="95.20341"
     inkscape:cy="73.19827"
     inkscape:document-units="mm"
     inkscape:current-layer="layer1"
     showgrid="false"
     units="px"
     inkscape:window-width="2560"
     inkscape:window-height="1387"
     inkscape:window-x="-8"
     inkscape:window-y="-8"
     inkscape:window-maximized="1" />
  <metadata
     id="metadata5">
    <rdf:RDF>
      <cc:Work
         rdf:about="">
        <dc:format>image/svg+xml</dc:format>
        <dc:type
           rdf:resource="http://purl.org/dc/dcmitype/StillImage" />
        <dc:title />
      </cc:Work>
    </rdf:RDF>
  </metadata>
  <g
     inkscape:label="Layer 1"
     inkscape:groupmode="layer"
     id="layer1"
     transform="translate(0,-263.13336)">
    <path
       style="fill:#db0030;fill-opacity:1;stroke-width:1"
       d="m 14.720707,264.78736 c -1.390082,-0.0123 -3.289071,0.38896 -4.7896105,1.15474 -2.5822186,1.31779 -3.7132927,3.25563 -4.0456973,6.9354 l -0.1561144,1.73242 H 3.8476975 c -1.7239448,0 -1.9173717,0.0537 -2.3025269,0.64152 -0.3894392,0.59436 -0.3894392,0.68932 0,1.28367 0.3863833,0.58977 0.5761684,0.64153 2.3398176,0.64153 h 1.9188777 v 8.99394 c 0,0 -0.019627,8.09861 0,8.9946 0.019627,0.89598 0.8052414,1.27066 1.7962617,1.25965 0.9910207,-0.011 1.7613163,-0.312 1.7962621,-1.25965 0.034946,-0.94766 0,-8.86566 0,-8.86566 v -8.86628 h 4.8768313 4.8762 v 8.86628 c 0,0 0.005,8.49253 0,8.86566 -0.005,0.37312 0.806058,1.08793 1.891701,1.0713 1.085643,-0.0165 1.684361,-0.66359 1.700823,-1.14842 0.01646,-0.48483 0,-9.6993 0,-9.6993 0,-8.72346 -0.05044,-10.02278 -0.403242,-10.3756 -0.344741,-0.3447 -1.318573,-0.40324 -6.706592,-0.40324 H 9.3293931 l 0.1194565,-1.86074 c 0.2180634,-3.39566 1.3097974,-4.601 4.6998604,-5.18969 2.373613,-0.4122 2.565111,-0.56524 2.464329,-1.9707 -0.03815,-0.53188 -0.811158,-0.79186 -1.892332,-0.80143 z m 6.249626,0.0702 c -2.002766,0 -3.079529,2.35792 -1.704616,3.73284 1.343717,1.34371 3.990078,0.48653 3.990078,-1.29252 0,-0.47223 -0.07221,-1.04507 -0.159907,-1.27357 -0.191118,-0.49806 -1.409072,-1.16675 -2.125555,-1.16675 z m 7.486531,9.74483 c -0.0069,0.006 -0.01329,0.011 -0.02023,0.0177 -1.037865,0.96693 -0.76583,1.48077 3.159574,5.96457 2.046749,2.33793 3.72146,4.34921 3.72146,4.4698 0,0.1206 -1.730502,2.1799 -3.84597,4.57598 -2.835965,3.21212 -3.847197,4.53115 -3.849765,5.0222 -0.0034,0.66379 0.548916,1.34081 1.279883,1.56873 0.211734,0.066 0.576239,0.0708 0.810277,0.01 0.234033,-0.0607 2.126981,-2.0701 4.206235,-4.46537 2.079261,-2.39528 3.860375,-4.26143 3.958479,-4.14682 3.795002,4.43211 7.605904,8.55609 7.927694,8.57933 0.561891,0.0406 1.051626,-0.0927 1.406925,-0.34068 z"
       id="path826"
       inkscape:connector-curvature="0" />
    <path
       style="fill:#00037a;fill-opacity:1;stroke:none;stroke-width:0.26458332px;stroke-linecap:butt;stroke-linejoin:miter;stroke-opacity:1"
       d="m 132.19319,264.62177 c -1.21098,0.006 -1.7777,0.43567 -1.78993,1.00874 -0.0122,0.57307 -0.004,0.10714 -0.0752,6.02714 l -0.0771,6.32927 -0.88423,-1.15854 c -1.32695,-1.73785 -3.53375,-2.74579 -6.03852,-2.75949 -2.20068,-0.011 -3.0328,0.15072 -4.4641,0.86842 -1.60868,0.80662 -2.38859,1.47585 -3.34161,2.86821 -3.64472,5.32488 -2.29552,14.37419 2.56799,17.2244 0.64292,0.37678 1.65586,0.84356 2.25069,1.03781 0.65742,0.2147 1.8359,0.31985 3.00599,0.26799 2.55651,-0.1135 4.282,-0.8713 5.78192,-2.53954 l 1.14778,-1.2761 -0.0171,2.12871 c -0.005,0.684 0.34326,1.48017 1.67997,1.49668 1.33672,0.0165 1.94934,-0.44018 1.93026,-1.44801 -0.0191,-1.00784 0.12979,-28.45889 0.11754,-29.05747 -0.0122,-0.59857 -0.5834,-1.02434 -1.79438,-1.01822 z m -53.303208,3.07994 c -0.429273,0.0245 -0.830657,0.19815 -1.118083,0.51575 -0.398051,0.43984 -0.503047,1.0363 -0.580846,3.30936 l -0.09481,2.77341 -0.774883,0.15484 c -0.425997,0.0853 -1.256239,0.15485 -1.845563,0.15485 -1.236566,0 -1.687548,0.34332 -1.687548,1.28368 0,1.05301 0.446752,1.28304 2.48961,1.28304 h 1.873371 l 0.002,5.19728 c 0.0029,7.94814 0.435232,10.4049 2.115442,12.02017 0.798008,0.76717 2.609281,1.54678 4.156305,1.78931 2.839713,0.44515 4.47725,-0.11999 4.095629,-1.41325 -0.24274,-0.82258 -0.748133,-1.08203 -2.453585,-1.2603 -1.897048,-0.19827 -2.969133,-0.77337 -3.672163,-1.97006 -0.4892,-0.83272 -0.522066,-1.31327 -0.522066,-7.56239 v -6.67246 l 2.920664,-0.1283 c 2.559857,-0.11252 2.963396,-0.19212 3.262598,-0.64404 0.274996,-0.41536 0.279854,-0.63988 0.02402,-1.15475 -0.303057,-0.60988 -0.452834,-0.64683 -3.262598,-0.79826 -1.619693,-0.0873 -2.973865,-0.17356 -3.00915,-0.19215 -0.0353,-0.0186 -0.06383,-1.35532 -0.06383,-2.97059 0,-2.74394 -0.03781,-2.96326 -0.570735,-3.33655 -0.397621,-0.2785 -0.854403,-0.40308 -1.283674,-0.37859 z m -49.526771,6.40511 c -0.305492,0.01 -0.578605,0.19302 -0.906347,0.49552 l 18.754566,21.25555 c 0.468727,-0.32719 0.703366,-0.85409 0.5543,-1.448 -0.0878,-0.34985 -1.893984,-2.58651 -4.013461,-4.97038 l -3.853559,-4.33454 1.147153,-1.33361 c 0.630876,-0.73352 2.265234,-2.60422 3.632343,-4.15693 2.597502,-2.95012 2.962894,-3.52045 2.757599,-4.30547 -0.178458,-0.68245 -1.229959,-1.29624 -1.914455,-1.11745 -0.320091,0.0837 -2.184196,2.00095 -4.165783,4.28461 l -3.586206,4.13292 -1.033385,-1.11492 c -0.56827,-0.61336 -2.279178,-2.52865 -3.80173,-4.25617 -2.030972,-2.30437 -2.884848,-3.15265 -3.571035,-3.13113 z m 31.42763,0.0202 c -2.412263,0.0124 -4.212003,0.45501 -6.43355,1.53776 -1.817684,0.88594 -2.341116,1.62215 -1.949217,2.74117 0.34065,0.97263 1.075007,0.98911 2.90423,0.0657 3.115342,-1.57263 6.38001,-1.97555 8.437754,-1.04161 1.451729,0.6589 2.094976,2.01414 2.102804,4.42998 l 0.0057,1.73244 -1.989036,0.002 c -4.383595,0.005 -8.424117,0.74701 -10.089276,1.85378 -2.048493,1.36154 -2.645495,4.56088 -1.33108,7.13196 0.838967,1.64108 2.109256,2.71669 3.966061,3.35804 1.688656,0.58332 3.539086,0.60934 5.354654,0.0764 1.065444,-0.31272 1.70459,-0.7277 2.71209,-1.76088 l 1.318439,-1.3513 0.12451,1.29506 c 0.1999,2.0804 1.626356,2.86682 2.896648,1.59654 l 0.630145,-0.63016 v -6.76536 c 0,-8.65673 -0.321739,-10.44769 -2.216571,-12.34252 -1.37472,-1.37472 -2.554432,-1.79454 -5.369823,-1.90939 -0.372626,-0.0152 -0.72986,-0.022 -1.07447,-0.0202 z m 39.511439,0.002 c -0.18995,0.002 -0.385214,0.006 -0.586532,0.0145 -2.147412,0.0834 -2.673187,0.20119 -4.15694,0.93163 -3.606039,1.77523 -5.575235,5.44871 -5.575235,10.40024 0,3.3389 1.001364,6.06086 2.944681,8.00418 1.269959,1.26995 2.623536,2.02639 4.562073,2.54838 2.858153,0.76964 6.520673,0.32622 9.428163,-1.14147 1.77417,-0.89559 2.46431,-1.88008 2.06172,-2.93899 -0.32877,-0.8647 -1.29932,-0.86332 -2.81638,0.004 -4.01518,2.29503 -8.002121,2.15896 -10.508949,-0.35837 -1.263339,-1.26862 -2.078785,-3.16019 -2.078785,-4.82247 v -0.86842 h 7.169874 c 4.25845,0 7.44929,-0.10666 7.85881,-0.2623 l 0.68892,-0.2623 -0.12198,-2.23996 c -0.16529,-3.03388 -0.90629,-4.90837 -2.61791,-6.62 -1.78568,-1.78565 -3.40231,-2.4193 -6.25152,-2.38848 z m -0.27241,2.58252 c 1.57344,-0.0275 3.15327,0.47891 4.23594,1.52827 0.96453,0.93486 1.88602,3.11608 1.88602,4.46348 v 0.88866 h -6.315996 -6.316622 l 0.176971,-0.96197 c 0.284164,-1.54363 1.116279,-3.19858 2.133771,-4.2429 1.058894,-1.08681 2.626478,-1.64802 4.199916,-1.67554 z m 23.70218,0.34066 c 2.52699,-0.005 3.8933,0.65538 5.15368,2.49341 0.99318,1.44843 1.39111,3.10899 1.39111,5.8091 0,4.37882 -1.76134,7.25784 -4.87619,7.97004 -1.46297,0.33451 -2.14831,0.32025 -3.61781,-0.0758 -3.05347,-0.82304 -4.68392,-3.64404 -4.69101,-8.11668 -0.006,-3.74234 1.17713,-6.26623 3.5211,-7.50991 0.83946,-0.44542 1.50218,-0.56644 3.11912,-0.57011 z m -57.8735,8.84986 v 1.3178 c 0,0.72467 -0.133871,1.7646 -0.297694,2.31138 -0.397969,1.32831 -1.871082,3.00411 -3.15262,3.5862 v -6.4e-4 c -1.137172,0.51652 -3.448846,0.61717 -4.505194,0.19594 -1.466532,-0.58478 -2.566719,-2.16638 -2.566719,-3.68986 0,-2.68119 2.231837,-3.71774 8.019973,-3.72019 z"
       id="path846"
       inkscape:connector-curvature="0" />
  </g>
</svg>
